<svg xmlns="http://www.w3.org/2000/svg" width="36" height="9">
    <rect x="0" y="4" width="2" height="2"/>
    <rect x="10" y="4" width="1" height="3"/>
    <rect x="11" y="3" width="1" height="1"/>
    <rect x="11" y="7" width="1" height="1"/>
    <rect x="12" y="8" width="2" height="1"/>
    <rect x="12" y="2" width="2" height="1"/>
    <rect x="14" y="5" width="1" height="1"/>
    <rect x="16" y="4" width="1" height="3"/>
    <rect x="15" y="3" width="1" height="1"/>
    <rect x="15" y="7" width="1" height="1"/>
    <rect x="17" y="5" width="1" height="1"/>
    <rect x="20" y="2" width="2" height="3"/>
    <rect x="22" y="1" width="1" height="1"/>
    <rect x="22" y="5" width="1" height="1"/>
    <rect x="24" y="0" width="1" height="2"/>
    <rect x="24" y="5" width="1" height="2"/>
    <rect x="34" y="2" width="2" height="2"/>
</svg>